<svg xmlns="http://www.w3.org/2000/svg" viewBox="0 0 1744.75 1533.3"><defs><style>.cls-1{fill:#efccb6;}.cls-2{fill:#973320;}.cls-3{fill:#e89776;}.cls-4{fill:#051e3d;}.cls-5{fill:#321613;}.cls-6{fill:#f5a987;}.cls-7{fill:#09284e;}.cls-8{fill:#e28c72;}.cls-9{fill:#f5a47f;}.cls-10{fill:#fff;}.cls-11{fill:#b5cdcf;}.cls-12{fill:#daedeb;}.cls-13,.cls-15,.cls-29{fill:none;stroke-miterlimit:10;}.cls-13{stroke:#daedeb;}.cls-13,.cls-29{stroke-width:2.95px;}.cls-14{fill:#4e250d;}.cls-15{stroke:#c6c6c6;stroke-width:4.82px;}.cls-16{fill:#cde8ea;}.cls-17{fill:#ea8f72;}.cls-18{fill:#d42a26;}.cls-19{fill:#a8241b;}.cls-20{fill:#041b39;}.cls-21{fill:#0a2b52;}.cls-22{fill:#432918;}.cls-23{fill:#d0896b;}.cls-24{fill:#14171c;}.cls-25{fill:#0f1115;}.cls-26{fill:#181c22;}.cls-27{fill:#dadada;}.cls-28{fill:#ededed;}.cls-29{stroke:#ededed;}.cls-30{fill:#28333a;}.cls-31{fill:#b78167;}.cls-32{fill:#007fc8;}.cls-33{fill:#006ca9;}.cls-34{fill:#cdac86;}.cls-35{fill:#dfba90;}.cls-36{fill:#724028;}.cls-37{fill:#c82a29;}.cls-38{fill:#e89c79;}.cls-39{fill:#29325b;}.cls-40{fill:#54a7cd;}.cls-41{fill:#e5c797;}.cls-42{fill:#3c1604;}.cls-43{fill:#171a20;}.cls-44{fill:#1d2027;}.cls-45{fill:#00b1c3;}.cls-46{fill:#dfeef7;}</style></defs><g id="Layer_2" data-name="Layer 2"><g id="Capa_1" data-name="Capa 1"><path class="cls-1" d="M1744.75,1450.82c0,45.56-390.58,82.48-872.38,82.48S0,1496.38,0,1450.82s390.57-82.47,872.37-82.47S1744.75,1405.28,1744.75,1450.82Z"/><path class="cls-2" d="M357.21,95.52s-44.46,0-36.72-50.53c0,0,26.78,25.28,55.45,14.82C375.94,59.81,378.11,93.75,357.21,95.52Z"/><path class="cls-3" d="M276.65,334l-14.13,3.07s-38.65,166.33-24.11,205.81,37.91.39,45.21-3.18,71.92-186.59,71.92-186.59Z"/><path class="cls-4" d="M228,522l25.41-193.16c15.13-50.83,71-32.06,71-32.06,41.89,15.54,35.22,48.5,35.22,48.5L302.2,543.79s-10.87,30.14-50.67,26.13C251.53,569.92,222.55,563,228,522Z"/><path class="cls-5" d="M296.39,1370.64s-7.51,29.21-16.73,37.13-44.4,19.57-44.4,19.57l-19.49,2.8s-13.55,9.72,23.64,19.93,102.44-20.61,102.44-20.61l-14.71-59.71Z"/><path class="cls-5" d="M492.48,1434.22c6.57-10.23,20.32-66,20.32-66l30.38-.92,19,61.36s3,10.27-3.16,14.12c0,0-37.89,13.15-70.25-.63C488.79,1442.19,489.14,1439.45,492.48,1434.22Z"/><path class="cls-6" d="M304.13,588,265.34,350.87S252,315.23,278.71,297.41l101.88-47.89h71.86L575,321.92,494.66,588Z"/><path class="cls-7" d="M494.66,588s22,50.24,27.3,165.73c0,0-165.59,51.94-217.53,0L304.13,588Z"/><path class="cls-7" d="M386.09,753.19c-.28,38.76,29.91,70.4,67.42,70.67S521.68,793,522,754.19s-29.9-70.39-67.41-70.67S386.38,714.44,386.09,753.19Z"/><path class="cls-7" d="M521.9,762.73l18,330.06s-31.9,41.83-88.35-5.36l-61.29-303.6S420,681.8,521.9,762.73Z"/><path class="cls-7" d="M525.87,1054.25s31,59,26,155.51l5,180.4-51.21,1.53-53.82-303.33S480.39,986.52,525.87,1054.25Z"/><path class="cls-7" d="M304.73,753.88c-3.93,38.55,9.85,71.54,47.18,75.34s70.77-24.36,74.71-62.91-23.14-72.9-60.47-76.7S308.67,715.32,304.73,753.88Z"/><path class="cls-7" d="M410.69,804.64l-38.3,301.67s-67.77,9-81-37.11c0,0-.84-213,13.32-315.32C304.73,753.88,396.55,709.16,410.69,804.64Z"/><path class="cls-7" d="M368.12,1079.58s12.25,45.19,1,118l-27.81,203.77-54.81-3.87,4.93-328.28S321.58,1023.57,368.12,1079.58Z"/><path class="cls-6" d="M564.24,351.06l14,3.73S600,522,583.64,560.75s-31.71.31-38.84-3.59-60.25-190.64-60.25-190.64Z"/><path class="cls-4" d="M526.73,555.66,481,358.76c9.45-53.25,60.14-49.5,60.14-49.5,44.49,4,46.68,37.6,46.68,37.6l2.94,200.25s2.94,34.23-22.86,32.41C567.85,579.52,530.93,573.75,526.73,555.66Z"/><path class="cls-6" d="M452.81,197.15V274H371.59s20-30.45,10-76.81Z"/><path class="cls-8" d="M411.61,262.38c-7.32,4.7-22.88,14.73-31.76,8.87a8.4,8.4,0,0,1-3.85-6c5.22-12.16,12.41-36.43,5.57-68.14h71.24v7C443.92,226.6,432.52,248.89,411.61,262.38Z"/><path class="cls-9" d="M454.75,198.23s13.82-6,29.47-40.22c0,0,34-40.46,9.9-86.38,0,0-14.23-38.84-83.19-28C410.93,43.66,404.73,147.75,454.75,198.23Z"/><path class="cls-6" d="M369.83,219l-4.6-12s-12.69-44.81-12.69-44.82a46.21,46.21,0,0,1-.67-19c1.12-6.3,1.83-12.88.19-19.53-8-32.22,8.51-50.52,8.51-50.52,18.2-30.39,63-31.4,63-31.4,55.46,1.44,61.37,54.94,61.37,54.94,9.82,35.45-17.86,65.8-17.91,65.87-2.22,2.41-.78,14.12-1.38,17.48-2.6,14.29-16,23.36-27.93,29.66-13.1,6.93-29,14.34-43.77,16C388.33,226.37,372.46,225.91,369.83,219Z"/><path class="cls-10" d="M507.84,581.52c-.16,7.9,11.83,90.54,6.79,91.59,0,0-137.09,31.6-210.2,0l-.3-85.15L265.34,350.87S252,315.23,278.71,297.41l101.88-47.89-6.88,20.66,14.74,41.89,64-62.55L575,321.92q-10.28,34-20.5,68.06c-12.63,41.81-24.91,83.75-37.93,125.46C516.52,515.44,505.76,560.66,507.84,581.52Z"/><polygon class="cls-11" points="397.29 264.43 398.14 302.6 412.19 288.86 397.29 264.43"/><path class="cls-12" d="M379.39,326a5.45,5.45,0,1,0,5.45-5.44A5.44,5.44,0,0,0,379.39,326Z"/><path class="cls-12" d="M379.39,424.89a5.45,5.45,0,1,0,5.45-5.44A5.44,5.44,0,0,0,379.39,424.89Z"/><path class="cls-12" d="M379.39,523.79a5.45,5.45,0,1,0,5.45-5.44A5.45,5.45,0,0,0,379.39,523.79Z"/><path class="cls-12" d="M379.39,622.7a5.45,5.45,0,1,0,5.45-5.45A5.44,5.44,0,0,0,379.39,622.7Z"/><line class="cls-13" x1="397.29" y1="306.95" x2="397.29" y2="682.31"/><path class="cls-14" d="M305.27,680.94s70,32.8,213.3-.73c2.35-.56,1.36-6.67,1.36-6.67l-1.36-13.79c-.63-4.43-3.1-4.21-3.1-4.21s-137.1,31.59-210.2,0c0,0-2.95-.52-3.07,3.91v17.19S302.2,680.08,305.27,680.94Z"/><path class="cls-15" d="M376.39,691.34a3.91,3.91,0,0,0,3.87,4h27.88a3.91,3.91,0,0,0,3.86-4V671.26a3.92,3.92,0,0,0-3.86-4H380.26a3.92,3.92,0,0,0-3.87,4Z"/><line class="cls-15" x1="412" y1="680.04" x2="397.24" y2="680.04"/><path class="cls-16" d="M397.29,263.57s44.94-17.46,55.52-34.84l13.28,25.32-47.38,45.43-21.42-35.05"/><path class="cls-2" d="M358.8,75.44c2-14.64,49.71-6.81,62.19-4.53,7.51,1.38,16.32,3.66,20.41,11,1.51,2.73,7.55,21.8.12,31.34a194.53,194.53,0,0,1,8.1,36.4l3.79.21c7.46,19.24,8.92,42.36,8.92,42.36s27.83-12,47.14-62.79C529,64.81,481,36.32,481,36.32c-44.08-19.14-88.08-13.91-88.08-13.91S348.52,26.47,338.5,0C338.5,0,310.42,60.75,358.8,75.44Z"/><path class="cls-6" d="M458.71,167.75a12.26,12.26,0,0,0,7.81,2.79c8.84.28,16.55-7.64,17.23-17.69s-5.93-18.4-14.76-18.69a15.55,15.55,0,0,0-11.18,4.5c-4.44,4.24-5,12.41-4.22,18.1C454.18,161.31,455.77,165.26,458.71,167.75Z"/><path class="cls-17" d="M465,143.36c.77-5.26,11.2.28,9.46,3.18-1,1.67-2.95,2.83-4.48,4a7.79,7.79,0,0,0-3.54,5.62c-.06.3-.15,1.21.14,1.45,1.34,1,6.1-3.93,7.15-5,2.05-2.05,2.49-5.7,1.67-8.39-.87-2.86-2.65-4.27-5.68-4.22-2.39,0-4.85.07-4.84,3.05,0,.08.08.58.12.31Z"/><path class="cls-17" d="M468.14,149c-1.05-1.17-2.15-.29-3.34.48a5,5,0,0,0-2.05,3,12.37,12.37,0,0,0,.92,8.86,6.67,6.67,0,0,0,5.59,3.32c3.22,0,4.3-2.75,4.56-5.46.07-.72.2-2.45-.49-2.93s-1.35.65-1.88,1.14a4.53,4.53,0,0,1-2.77.9A5.79,5.79,0,0,1,464,156a3.1,3.1,0,0,1-.45-.84c-.07,1.78,0,2.18.23,1.21a4.71,4.71,0,0,1,.67-1.23c.8-1.2,2.1-2,3-3.12.42-.53,1.25-2.4.72-3Z"/><path class="cls-4" d="M472.8,261.55,418.32,452.94l8.09,347.75s93.5,7,130.49-26.51L522,558.91l53-237Z"/><path class="cls-4" d="M352.13,262.89l-62,29.16S254.78,301.38,262,338l20.4,202.68L248.58,774.18s29,34.84,86.79,14.37l25.45-340.77Z"/><path class="cls-16" d="M359.33,265.51s4.13-16,24.4-29.49l-2.65,55.11S369.83,262.93,359.33,265.51Z"/><path class="cls-11" d="M357.49,291.13l1.84-25.62c6.19-1.52,11.72,7.15,16.23,14.25Z"/><polygon class="cls-18" points="401.71 278.23 403.37 275.13 414.67 292.48 404.95 295.94 401.71 278.23"/><path class="cls-18" d="M375.56,279.76l-3.17-4.86s-12.07,10.15.6,21C373,295.94,373,287,375.56,279.76Z"/><path class="cls-18" d="M401.71,278.23s-9.58,8.51-26.15,1.53c-3.63,4.61-3.61,10.48-2.57,16.18l8.59,17.7h12L405,295.94S406.13,292,401.71,278.23Z"/><polygon class="cls-19" points="393.57 313.64 403.25 566.98 383.03 606.33 366.53 567.18 381.58 313.64 393.57 313.64"/><path class="cls-6" d="M460.56,474.2l24.91-19.68s37.5-5.5,56.23-3.14c0,0,6.19,8.61-41.11,9.93,0,0,33.17,10.6,43.82,18.48,0,0,1.71,9.82-28.62-4.44l-13.81-1,32.09,16s-1.25,6.1-30.47-1.83l-29.31,3.21Z"/><path class="cls-20" d="M301.05,477.85l160.52-19.2c8,9.8,15.75,27.6,12.32,46.23l-205,65s-54.17,9.61-39.89-55.63C229,514.28,251.85,481,301.05,477.85Z"/><path class="cls-6" d="M301.05,477.85s28.84,15.55,39.66,16.78l16.78-29L334.56,450.8l-15.72-3.62S293,440.5,286.17,476Z"/><path class="cls-21" d="M588,534c9.7,58.65-33,43.83-33,43.83l-217.5-78.28c6.13-33.7,19.92-39,19.92-39l186,35.49S578.52,507.09,588,534Z"/><path class="cls-22" d="M1387.55,135.8c-5,5-6.92,12.58-9.36,19.27-18.82-24.81-32.66-73.55-5.87-95.89C1412.59,25.61,1413.4,110.07,1387.55,135.8Z"/><path class="cls-23" d="M1473.91,803.17l3.11,21L1464.82,852s5.16,4.62,10.87-4.5l10.87-22.93L1485,800.9Z"/><path class="cls-23" d="M1479.5,810.26l4.27,20.77-10.62,28.45s5.4,4.32,10.6-5.11l9.58-23.5-2.85-23.49Z"/><path class="cls-3" d="M1502.94,814.91l-3.8-24.38L1495,760.28,1476,757.66l-6.5,31.9L1468,806.31l-1.9,22.88-1,7.38s5.92,1.91,10.53-9.84l4.83-21.58,8.21,17-7,29.78s1.78,15.54,6.44,9.68l15.66-41.79Z"/><path class="cls-3" d="M1430.11,554.21S1472,719.31,1476,757.66c0,0,16.27,19.32,18.93,2.62,5.33-33.33-2.24-207.87-10.76-221.68S1430.11,554.21,1430.11,554.21Z"/><path class="cls-3" d="M1464.11,355.29l13.75,4.49s21.78,169.35,3.35,207.18-39.64-.19-46.54-4.47-51-196.09-51-196.09Z"/><path class="cls-24" d="M1493.71,547.3l-8.79-212.16c-10-52.08-63.28-36.58-63.28-36.58-43.24,11.26-41.17,59.71-41.17,59.71l37.19,203.22s7.79,31.08,47.79,31.08C1465.45,592.57,1495,588.59,1493.71,547.3Z"/><polygon class="cls-10" points="1468.17 762.93 1468.83 782.24 1502.42 781.08 1501.76 761.78 1468.17 762.93"/><path class="cls-24" d="M1421.32,568.63s18.56,124.72,45.16,201.11c0,0,22.83,2.14,35.83-1.24,0,0,2-178.82-12.74-236.68C1489.57,531.82,1416,533.35,1421.32,568.63Z"/><path class="cls-5" d="M1448.36,1357.56s7.5,29.21,16.73,37.13,44.4,19.57,44.4,19.57l19.49,2.8s13.54,9.72-23.64,19.94-102.44-20.62-102.44-20.62l14.71-59.71Z"/><path class="cls-5" d="M1249.68,1437.89c-6.56-10.23-20.31-66-20.31-66L1199,1371l-19,61.36s-3,10.27,3.15,14.12c0,0,37.89,13.15,70.25-.63C1253.38,1445.86,1253,1443.12,1249.68,1437.89Z"/><path class="cls-6" d="M1438,591.63l38.79-237.09s13.37-35.65-13.37-53.46l-101.88-47.89h-71.86l-122.49,72.39,80.28,266.05Z"/><path class="cls-25" d="M1247.51,591.63s-22,50.24-27.31,165.73c0,0,165.6,51.94,217.55,0l.29-165.73Z"/><path class="cls-25" d="M1356.07,756.86c.29,38.75-29.89,70.4-67.41,70.68s-68.17-30.92-68.45-69.68,29.9-70.39,67.42-70.67S1355.79,718.11,1356.07,756.86Z"/><path class="cls-25" d="M1220.27,766.41l-18,295.12s31.88,76.76,88.34,29.57l61.29-303.6S1322.14,685.47,1220.27,766.41Z"/><path class="cls-25" d="M1202.26,1061.53s-17,55.41-11.94,151.9l-5,180.4,62.52,1.24,42.51-303S1247.74,993.8,1202.26,1061.53Z"/><path class="cls-25" d="M1437.43,757.54c3.93,38.56-9.84,71.55-47.17,75.35s-70.77-24.35-74.71-62.91,23.14-72.9,60.47-76.71S1433.5,719,1437.43,757.54Z"/><path class="cls-25" d="M1331.48,808.31l34.3,271.9s74.35,33,87.55-13.16c0,0-1.72-207.13-15.9-309.51C1437.43,757.54,1345.63,712.83,1331.48,808.31Z"/><path class="cls-25" d="M1365.78,1069.11s-10.44,39.87.83,112.69l25.8,206.09,65.86-3.49-4.94-328.29S1412.32,1013.1,1365.78,1069.11Z"/><path class="cls-6" d="M1183,570.5c-14,140.42-8.26,149.71-6.8,206,0,0-7.48,19.82-20.2,8.68s-33-198.11-26.64-213C1138.88,550.05,1183,570.5,1183,570.5Z"/><path class="cls-6" d="M1174.14,770.93l19.75,19.75,16.78,24.58c-8.3,5.59-17-8.17-17-8.17,5.43,21.68,16,40.8,16,40.8,2.55,7.77-4.79,7.19-4.79,7.19-8.19-8.41-18.68-33.22-18.68-33.22,3.94,14.78,14,38.34,14,38.34.94,6.75-5.83,4.83-5.83,4.83-13.94-8.25-18.57-38.34-18.57-38.34,1.39,11.42,10.39,34.86,10.39,34.86-1.62,4.65-3.88,3.06-3.88,3.06-12-4.84-16.41-33.81-16.41-33.81l1.92,10.8c3.94,14.56-5.09,10.81-5.09,10.81l-3.25-7.3a88.07,88.07,0,0,1-6.65-42.58l.06-26.21Z"/><path class="cls-6" d="M1214.1,329.94c-47.29-10.77-63.45,32.94-63.45,32.94s-23.74,145.49-23.45,207.84c.19,42.07,51.53,8.19,54.9.79,7.44-16.32,61.38-191.56,61.38-191.56S1246.3,338.77,1214.1,329.94Z"/><path class="cls-26" d="M1190.1,574l61.33-198.84c-1.38-49.43-49.75-56.8-49.75-56.8-45.48-4.36-55.45,34.78-55.45,34.78l-22,199.06s-7.46,44.74,18.39,45.39C1142.62,597.55,1186,602.25,1190.1,574Z"/><rect class="cls-10" x="1147.84" y="761.27" width="33.61" height="19.31" transform="translate(-128.51 243.22) rotate(-11.3)"/><path class="cls-26" d="M1193.82,561.89s-7.94,167-10.81,201.2l-37.29,7.84s-33.71-167.4-21.49-218.77C1124.23,552.16,1173,525.57,1193.82,561.89Z"/><path class="cls-6" d="M1289.36,200.82v76.81h81.22s-20-30.45-10-76.81Z"/><path class="cls-8" d="M1330.56,266.05c7.32,4.7,22.88,14.73,31.76,8.87a8.4,8.4,0,0,0,3.85-6c-5.22-12.17-12.41-36.43-5.57-68.14h-71.24v7C1298.25,230.27,1309.64,252.56,1330.56,266.05Z"/><path class="cls-9" d="M1287.42,201.9s-13.83-6-29.47-40.22c0,0-34-40.45-9.9-86.38,0,0,14.23-38.85,83.19-28C1331.24,47.32,1337.44,151.42,1287.42,201.9Z"/><path class="cls-6" d="M1372.34,222.67l4.61-12,12.69-44.82a46.39,46.39,0,0,0,.66-19c-1.12-6.3-1.83-12.89-.19-19.53,8-32.23-8.5-50.52-8.5-50.52-18.2-30.39-63-31.4-63-31.4-55.47,1.44-61.37,54.94-61.37,54.94-9.82,35.45,17.86,65.8,17.91,65.87,2.21,2.41.78,14.12,1.38,17.47,2.6,14.3,16,23.37,27.93,29.67,13.1,6.93,29,14.34,43.77,16C1353.84,230,1369.71,229.58,1372.34,222.67Z"/><path class="cls-10" d="M1234.32,585.19c.17,7.9-11.82,90.54-6.78,91.6,0,0,137.1,31.59,210.21,0l.29-85.16,38.79-237.09s13.37-35.65-13.37-53.46l-101.88-47.89,6.87,20.65-14.73,41.9-64-62.55-122.49,72.39q10.26,34,20.49,68.06c12.63,41.82,24.92,83.76,37.93,125.47C1225.65,519.11,1236.41,564.34,1234.32,585.19Z"/><polygon class="cls-27" points="1344.88 268.1 1344.04 306.27 1329.97 292.53 1344.88 268.1"/><path class="cls-28" d="M1362.79,329.65a5.45,5.45,0,1,1-5.45-5.44A5.45,5.45,0,0,1,1362.79,329.65Z"/><path class="cls-28" d="M1362.79,428.56a5.45,5.45,0,1,1-5.45-5.45A5.44,5.44,0,0,1,1362.79,428.56Z"/><path class="cls-28" d="M1362.79,527.46a5.45,5.45,0,1,1-5.45-5.44A5.45,5.45,0,0,1,1362.79,527.46Z"/><path class="cls-28" d="M1362.79,626.37a5.45,5.45,0,1,1-5.45-5.45A5.46,5.46,0,0,1,1362.79,626.37Z"/><line class="cls-29" x1="1344.88" y1="310.62" x2="1344.88" y2="685.98"/><path class="cls-14" d="M1436.9,684.61s-70,32.8-213.3-.73c-2.35-.56-1.35-6.67-1.35-6.67l1.35-13.79c.63-4.42,3.1-4.21,3.1-4.21s137.1,31.59,210.2,0c0,0,2.95-.52,3.08,3.91v17.19S1440,683.75,1436.9,684.61Z"/><path class="cls-15" d="M1365.78,695a3.91,3.91,0,0,1-3.87,4H1334a3.91,3.91,0,0,1-3.86-4V674.93a3.92,3.92,0,0,1,3.86-4h27.88a3.92,3.92,0,0,1,3.87,4Z"/><line class="cls-15" x1="1330.17" y1="683.71" x2="1344.93" y2="683.71"/><path class="cls-28" d="M1344.88,267.24s-44.94-17.45-55.52-34.84l-13.28,25.31,47.38,45.45,21.42-35.06"/><path class="cls-22" d="M1300.77,85.63c-1.51,2.73-7.55,21.8-.12,31.34-15.66,12-8.1,36.4-8.1,36.4l-3.8.22c-22-5.69-14.59,35.86-14.58,35.87-.17-1-3.82-3.28-4.55-4-4.3-4.11-13.35-18.9-16.2-24.11-15.46-28.34-14-29.8-18.15-46.52-2.83-11.43-1.61-42.39,15-57.95C1250.29,56.91,1269.68,56.91,1300.77,85.63Z"/><path class="cls-6" d="M1283.46,171.43a12.31,12.31,0,0,1-7.81,2.78c-8.84.28-16.55-7.64-17.23-17.69s5.93-18.41,14.76-18.68a15.53,15.53,0,0,1,11.18,4.48c4.44,4.24,5,12.42,4.23,18.11C1288,165,1286.4,168.93,1283.46,171.43Z"/><path class="cls-17" d="M1277.19,147c-.78-5.26-11.2.29-9.46,3.18,1,1.67,3,2.83,4.48,4a7.82,7.82,0,0,1,3.54,5.62c0,.3.16,1.21-.14,1.45-1.34,1-6.1-3.93-7.15-5-2-2-2.49-5.69-1.67-8.38.87-2.86,2.65-4.28,5.68-4.23,2.39,0,4.85.08,4.84,3.07,0,.07-.08.57-.12.3Z"/><path class="cls-17" d="M1274,152.66c1-1.17,2.15-.29,3.33.48a5,5,0,0,1,2.07,3,12.5,12.5,0,0,1-.93,8.87,6.67,6.67,0,0,1-5.59,3.32c-3.22.05-4.3-2.74-4.56-5.46-.06-.72-.21-2.45.49-2.93s1.35.65,1.88,1.14a4.53,4.53,0,0,0,2.77.9,5.78,5.78,0,0,0,4.69-2.36,3.1,3.1,0,0,0,.45-.84c.07,1.77,0,2.18-.23,1.2a4.81,4.81,0,0,0-.67-1.22c-.8-1.2-2.1-2-3-3.12-.43-.52-1.26-2.4-.73-3Z"/><path class="cls-26" d="M1269.37,265.22l54.48,191.39-8.08,347.75s-84.66-5.18-121.66-38.66l26.09-203.12-53-237Z"/><path class="cls-30" d="M1269.37,265.22l54.48,191.39-.23,9.09L1255,395.46s-7.21-12.18,2.55-19.4l16.21-15.51-11.56-8.29S1246,344.39,1248,329.65l4.64-55.42Z"/><path class="cls-26" d="M1390,266.57l62,29.16s35.31,9.32,28.09,45.91l-20.4,202.67L1470,759.07s8.74,39.91-63.19,33.14l-25.45-340.76Z"/><path class="cls-28" d="M1382.84,269.18s-4.13-16-24.39-29.5l2.64,55.11S1372.34,266.61,1382.84,269.18Z"/><path class="cls-27" d="M1384.68,294.79l-1.84-25.61c-6.19-1.52-11.72,7.14-16.23,14.25Z"/><path class="cls-30" d="M1390,266.57l16,7.52,11.56,53.36s5.79,13.81-2.6,17.43l-15.08,8.79,21.25,13.45s11.19,7,4.3,17.32l-42.62,83.22-1.34-14.23Z"/><path class="cls-31" d="M1283.43,199.5c28.43,26.5,65,29.75,65,29.75,21.34,2.23,24.22-6.89,24.22-6.89,6.6-11.87,16-53.36,16-53.36-.29,1.26-9.16-3.23-10.08-3.58-6.94-2.64-14.68-1.94-21.92-1.38-7.08.55-14.38,1.62-20.45,5.57-.71.46-6.17,5.87-6.67,5.8-3.78-.5-12.65-1.85-12.65-1.85-20.53-3-24.36-20.19-24.36-20.19l-3.8.22-5.93,25.89S1278.72,196,1283.43,199.5Zm84.07,5.86c-8.24,5.64-24.51,1.16-29.54-7.56-3-5.16-4.52-13.4-2.4-19.05,2.4-6.43,9.69-7.19,15.57-7.93,7.27-.93,15.25-2.18,22.56-.83,3.69.68,3.87,3.4,4.7,7.71C1380,185.84,1374.52,200.55,1367.5,205.36Z"/><polygon class="cls-32" points="1340.46 281.9 1338.8 278.8 1327.5 296.14 1337.21 299.61 1340.46 281.9"/><path class="cls-32" d="M1366.61,283.43l3.18-4.86s12.07,10.14-.61,21C1369.18,299.61,1369.18,290.64,1366.61,283.43Z"/><path class="cls-32" d="M1340.46,281.9s9.58,8.51,26.15,1.53c3.63,4.61,3.61,10.48,2.57,16.18l-8.59,17.7h-12l-11.39-17.7S1336,295.7,1340.46,281.9Z"/><polygon class="cls-33" points="1348.6 317.31 1338.91 570.65 1359.14 610 1375.64 570.85 1360.59 317.31 1348.6 317.31"/><path class="cls-22" d="M1304,82.16,1285.45,73l-35.16-16.06s0-24.1,44.36-33.41c0,0,54.39-8.57,97.65,14.31,0,0,11.8,6.44,21.1.72C1413.4,38.53,1398.38,101.48,1304,82.16Z"/><path class="cls-34" d="M1138.93,354l4.41-165.51c3.14-38.69-12-52.73-12-52.73-64.54-24.22-97.12,8.47-97.12,8.47v169.1C1062.23,339.51,1102,356.86,1138.93,354Z"/><path class="cls-6" d="M964.42,336.13c-33.94,16.59-15.08,56.46-15.08,56.46l45.86,166.9s42.85,17.52,118,8.75c10.44-15,31.9-77.56,39.1-125.37,5.92-39.37,24.31-78.17,4.27-100.13-7.68-8.41-66.19-16.81-66.48-18.19h-70.42Z"/><path class="cls-35" d="M1119.91,188.48l-4.39,164.79a110.09,110.09,0,0,0,23.41.72l4.41-165.51c3.14-38.69-12-52.73-12-52.73-23-8.63-41.91-10-56.76-8.25a138.17,138.17,0,0,1,33.33,8.25S1123.05,149.79,1119.91,188.48Z"/><path class="cls-36" d="M1070.83,561.25h0Z"/><path class="cls-3" d="M1151.29,339.49c21.81,11,25.28,36.37,21.68,59.42-3.76,24.13-46.93,74.79-57.52,52.78-20.81-43.25-30.54-76.05-21.28-98.64S1116.36,321.88,1151.29,339.49Z"/><path class="cls-3" d="M1173.74,375.36l-50.68-2.29-25.29,38.2s39.3,141.19,60.65,167.89c22.74,28.45,26.73-1.95,29.71-13.92C1188.13,565.24,1181.66,407.35,1173.74,375.36Z"/><path class="cls-23" d="M1185.75,790l3.11,21-12.2,27.81s5.16,4.62,10.87-4.5l10.87-22.93-1.52-23.62Z"/><path class="cls-23" d="M1191.34,797l4.27,20.76L1185,846.26s5.41,4.32,10.6-5.11l9.58-23.51-2.85-23.49Z"/><path class="cls-3" d="M1214.79,801.7,1211,777.31l-4.18-30.25-18.92-2.62-6.51,31.9-1.58,16.75-1.9,22.87-1,7.4s5.92,1.9,10.53-9.85l4.83-21.58,8.21,17-7,29.78s1.79,15.54,6.45,9.67l15.65-41.79Z"/><path class="cls-3" d="M1141.2,544.82s24.53,116,46.68,199.62c0,0,16.26,19.32,18.92,2.62,5.33-33.33-12.31-214-20.84-227.81S1141.2,544.82,1141.2,544.82Z"/><path class="cls-3" d="M1098.07,1483.39c22.81,3.88,44.68-3.46,44.68-3.46L1119.09,1466s-25.69-31.23-30.49-42.27c-3.07-7.07-3.94-30-3.94-30l-29.25,1.73-.06,16.39-10.65,24.89s-1,11.75,20.28,14.11A425.37,425.37,0,0,0,1098.07,1483.39Z"/><path class="cls-37" d="M1119.09,1466c-7.88,3.68-21.75,4.66-28.94-2.6-29-29.17-34.8-51.58-34.8-51.58-14.68,16.12-10.8,29.59-10.8,29.59l1.09,5.56,8.36,42.87,3-.18,8.32-35.42,20.34,32.84c48.62,6.38,60.21-6.8,60.21-6.8Z"/><path class="cls-3" d="M1117.86,1068.07s-30,311.11-33.2,325.63c0,0-29.53,10-29.25,1.73.66-20-28.47-148.23-30.37-179.65-3-50.46,5.16-84,31.4-151.86C1056.44,1063.92,1104.73,1030.45,1117.86,1068.07Z"/><path class="cls-3" d="M1007,748.84s-11.21,185.63,40.14,301.36c0,0,22.66,60.91,70.13,26.38,0,0,60.35-294.62,27.15-395.2C1144.39,681.38,1003.16,648.34,1007,748.84Z"/><path class="cls-38" d="M1084.54,557.33c5.6-1,28.7,10.91,28.7,10.91s28.85,92.71,30.09,106.81-95.71,87.07-204,45.52c0,0,50.15-130.57,53.21-162.72S1084.54,557.33,1084.54,557.33Z"/><path class="cls-39" d="M1113.24,568.24s27.65,83.61,30.09,106.81c8.63,82.14-102.51,116.59-210.82,75,0,0-7-112.92,60-192.23C992.52,557.85,1010.33,574.09,1113.24,568.24Z"/><path class="cls-6" d="M1010.83,811l-78.32-43s12.7,247.82,22.63,317.43c0,0,43.82,12.19,57.4,3.18,40.62-95.3,64.15-302.22,64.15-302.22Z"/><path class="cls-6" d="M963.38,695.5S925.8,706.35,933.57,776c7.6,68,132.7,74.48,144.38,4.74C1090.52,705.69,1029.64,665.92,963.38,695.5Z"/><path class="cls-6" d="M1016.21,329.63h75.38c-3.42-11-10.52-39.4.46-58.73l-76.16-50S1029.43,304.81,1016.21,329.63Z"/><path class="cls-8" d="M1086.18,296.66c-.22-8.4,1.17-17.49,5.87-25.76l-76.16-50s5.51,34.2,6.07,65.4C1049.47,295,1060.79,298.41,1086.18,296.66Z"/><path class="cls-6" d="M1103.77,277.74l4.57-11.12,11.45-32.82c1.61-5.22,2.61-12.42,1.06-17.67a53.58,53.58,0,0,1-.14-27.73c7.75-30-4.91-46.51-4.91-46.51-16.28-28.77-58-30.76-58-30.76C1006,111.19,999.24,161,999.24,161c-10,32.85,15.13,61.8,15.18,61.85,3.18,3.67,3.25,9.35,4.65,13.76a41.55,41.55,0,0,0,6.94,13c6.83,8.7,15.9,17.15,25.38,22.6,9,5.17,26.63,10.89,39.32,11.41C1096,283.8,1101.15,284.12,1103.77,277.74Z"/><path class="cls-34" d="M1019.21,242.38c.94-23.59,1.46-22.11,1.46-22.11.9-6.87,13.66,8.68,13.84-.31.81-41.15,16.73-59.94,22.72-62.81,16.29-7.76,33.13-9.38,46.27-6.36,20.59,4.75,18.39,32.36,18.39,32.36,22.84-100.34-91.71-73.72-91.71-73.72-55.72,11.64-52.69,63.75-52.69,63.75-9.56,55.3,43.6,90.12,43.6,90.12Z"/><path class="cls-9" d="M1023.23,234.54a11,11,0,0,1-7.27,1.82c-8-.52-14.25-8.34-14-17.45s7-16.06,14.94-15.54a14.08,14.08,0,0,1,9.67,5c3.64,4.22,3.38,11.63,2.22,16.69C1027.89,229.12,1026.11,232.55,1023.23,234.54Z"/><path class="cls-17" d="M1019.73,212c-.23-4.8-10.13-.73-8.8,2,.77,1.59,2.41,2.82,3.68,4a7,7,0,0,1,2.7,5.38c0,.26,0,1.1-.26,1.28-1.29.8-5.15-4.07-6-5.1-1.67-2-1.74-5.34-.76-7.69a4.77,4.77,0,0,1,5.47-3.31c2.17.24,4.37.5,4.11,3.19,0,.05-.12.5-.14.25Z"/><path class="cls-17" d="M1016.38,216.8c1.07-1,2-.07,3,.72a4.59,4.59,0,0,1,1.59,2.9,11.23,11.23,0,0,1-1.62,7.92,6,6,0,0,1-5.31,2.49c-2.92-.22-3.65-2.84-3.63-5.31,0-.65,0-2.22.69-2.59s1.16.7,1.6,1.19a4.16,4.16,0,0,0,2.42,1,5.26,5.26,0,0,0,4.42-1.71,2.37,2.37,0,0,0,.48-.73c-.08,1.62-.18,2-.3,1.07a4.64,4.64,0,0,0-.5-1.17c-.61-1.14-1.71-2-2.41-3.07-.34-.5-.92-2.27-.4-2.76Z"/><path class="cls-10" d="M1023.54,236.23a4.9,4.9,0,1,1-4.65-5.15A4.92,4.92,0,0,1,1023.54,236.23Z"/><path class="cls-40" d="M1132.58,364.91s29.74,41.2,34.93,62.43c3.41,14-20.91,45.37-40.55,50.91C1116.23,481.27,1116,367.68,1132.58,364.91Z"/><path class="cls-39" d="M1132.58,364.91s29.74,41.2,34.93,62.43c3.41,14-20.91,45.37-40.55,50.91C1116.23,481.27,1116,367.68,1132.58,364.91Z"/><path class="cls-39" d="M1102.51,327.37l16.92,2.26s27.09,55.33,33.81,113.58c-7.19,47.81-22.51,119.86-40,125-59.27,17.53-121.14-10-121.14-10L963.75,445c76.14-29.64,37.66-116.66,37.66-116.66l16-3.83S1069.66,371.52,1102.51,327.37Z"/><path class="cls-6" d="M996.69,1484.7c22.53,5.24,44.8-.8,44.8-.8l-22.8-15.3s-23.79-32.71-27.92-44c-2.66-7.24-2.15-30.21-2.15-30.21H959.31l-1,16.35L946.17,1435s-1.69,11.66,19.4,15.28A424.52,424.52,0,0,0,996.69,1484.7Z"/><path class="cls-37" d="M1018.69,1468.6c-8.08,3.2-22,3.35-28.73-4.31-27.19-30.85-31.69-53.56-31.69-53.56-15.6,15.23-12.52,28.9-12.52,28.9l.75,5.61,5.8,43.29h3l10.4-34.87,18.36,34c48.15,9.25,60.51-3.22,60.51-3.22Z"/><path class="cls-6" d="M952.09,1059.58l64,19s-24.64,301.25-27.48,315.85c0,0-29.39,8.3-29.31,0,.16-20.05-25.66-143.22-27.92-174.62C927.51,1165.8,912.84,1129.61,952.09,1059.58Z"/><path class="cls-6" d="M1009.27,371.63c1.51,24.36-11.23,48.3-35.61,49.8s-87.75-9.63-72.55-28.75c29.85-37.59,47.93-56.45,72.3-58S1007.77,347.25,1009.27,371.63Z"/><path class="cls-6" d="M990.68,407.07l-15.51-41.82-45.39-6.11s-110,96.91-124.69,127.76c-15.69,32.88,13.42,23.21,25.49,20.68C830.58,507.58,976.08,431.5,990.68,407.07Z"/><path class="cls-6" d="M802.59,508.06s54.79,77.06,105.8,121c0,0,22-2.18,15-14.18-11.84-20.36-60.6-115.73-72.57-136.17C844.09,467.18,802.59,508.06,802.59,508.06Z"/><path class="cls-6" d="M923.41,614.84l12-.25,28.33-12.82c-.13,15.9,1.5,32.09,1.5,32.09a308.39,308.39,0,0,1,23,27.27c5.64,5.19-.64,8.08-.64,8.08-10.57-3.14-30.53-18.68-30.53-18.68,10,10.31,29,25,29,25,3.86,5.1-2.58,6.64-2.58,6.64-15.2-.39-32.77-23-32.77-23,6.37,8.73,24.48,23.83,24.48,23.83.79,4.56-1.77,4.29-1.77,4.29-12.1,1.55-29-20.22-29-20.22l6.51,8c9.91,10.13.79,11.19.79,11.19l-6-4.5a82.68,82.68,0,0,1-25-31.87l-12.49-21Z"/><path class="cls-35" d="M1097.51,149.79l-39.81-43.51c47.29-16.07,75.57,31.8,75.57,31.8l-9,11.71S1107.28,111.13,1097.51,149.79Z"/><path class="cls-39" d="M1151.21,890.19c6.7-79.46,8.86-175.53-11.88-227.39,0,0-188.27,12.35-206.17,55.4,0,0-9.1,49.77-1.55,172C931.61,890.19,1062.66,921.67,1151.21,890.19Z"/><path class="cls-41" d="M955.89,294.84c0,27.1,53,50.14,87.94,58.21-1.53-31.91-1.58-55.94-1.58-55.94-3.38-61.13-1.52-83.79,4-126.08,4.33-33,28.27-46.33,51.22-21.24-.93-1-1.15-4.53-1.6-5.91a50.84,50.84,0,0,0-2.47-6.19c-8-16.86-24.36-28.83-42.06-33.94a48.6,48.6,0,0,0-19.1-1.66c-21.84,2.37-48.85,17.75-59.81,36.89-10.74,18.76-13.15,42.41-14.9,63.57A362.52,362.52,0,0,0,956,238.79S956.43,261.65,955.89,294.84Z"/><path class="cls-42" d="M778.72,134.43S804.64,158.34,801.86,236v234.9s1.53,24.06,21.47,40c0,0-170.32,50-184.85-26.33V240.88s-7.91-102.52,31.57-120.94C670.05,119.94,739.91,91.14,778.72,134.43Z"/><path class="cls-6" d="M797.69,335.84c35.27,16.88,16.42,56.75,16.42,56.75l-45.86,166.9s-42.86,17.52-118,8.75c-10.44-15-31.91-77.56-39.1-125.37-5.92-39.37-24.31-78.17-4.27-100.13,7.67-8.41,66.19-16.81,66.48-18.19l69.07-.28Z"/><path class="cls-3" d="M746.85,761.1s-22.3,184.63-93.57,289.26c0,0-33.24,55.86-73.74,13.37,0,0-6.49-300.66,44.21-393.66C623.75,670.07,768.63,662.92,746.85,761.1Z"/><path class="cls-3" d="M642.22,329.63c-24.4-.68-56.84,23.42-57.52,47.83s12.63,87.38,31.22,71.55c36.54-31.12,54.78-49.85,55.46-74.25S666.63,330.3,642.22,329.63Z"/><path class="cls-3" d="M597.5,367.06l44.55-2,23.25,39.47s-46.58,139-69.29,164.52c-24.19,27.22-26.59-3.35-29-15.45C567.06,553.64,580.65,390,597.5,367.06Z"/><path class="cls-3" d="M599.33,1479.05c-22.8,3.89-44.68-3.46-44.68-3.46l23.67-13.93s25.69-31.23,30.48-42.28c3.08-7.06,4-30,4-30l29.24,1.73.07,16.39,10.65,24.9s1,11.73-20.28,14.1A424.47,424.47,0,0,1,599.33,1479.05Z"/><path class="cls-43" d="M578.32,1461.66c7.87,3.68,21.75,4.65,28.93-2.59,29-29.18,34.81-51.59,34.81-51.59,14.68,16.13,10.8,29.59,10.8,29.59l-1.09,5.56-8.36,42.86-3-.17-8.33-35.42-20.33,32.84c-48.62,6.38-60.22-6.8-60.22-6.8Z"/><path class="cls-3" d="M579.54,1063.73s30,311.11,33.21,325.63c0,0,29.53,10,29.24,1.73-.65-20,28.47-148.23,30.38-179.65,3-50.46-5.16-84-31.41-151.86C641,1059.58,592.68,1026.1,579.54,1063.73Z"/><path class="cls-38" d="M678.91,557.33c-5.6-1-28.7,10.91-28.7,10.91S621.36,661,620.12,675.05s95.71,87.07,204,45.52c0,0-50.15-130.57-53.22-162.72S678.91,557.33,678.91,557.33Z"/><path class="cls-44" d="M650.21,568.24s-27.66,83.61-30.09,106.81c-8.63,82.14,102.51,116.59,210.82,75,0,0,7-112.92-60-192.23C770.92,557.85,753.12,574.09,650.21,568.24Z"/><path class="cls-6" d="M752.61,811l78.33-43s-12.71,247.82-22.63,317.43c0,0-43.83,12.19-57.4,3.18-40.62-95.3-64.15-302.22-64.15-302.22Z"/><path class="cls-6" d="M800.07,695.5s37.58,10.85,29.81,80.49c-7.6,68-132.7,74.48-144.38,4.74C672.93,705.69,733.81,665.92,800.07,695.5Z"/><path class="cls-6" d="M747.24,329.63H671.86c3.42-11,10.52-39.4-.46-58.73l76.16-50S734,304.81,747.24,329.63Z"/><path class="cls-8" d="M677.27,296.66c.21-8.4-1.18-17.49-5.87-25.76l76.16-50s-5.52,34.2-6.08,65.4C714,295,702.66,298.41,677.27,296.66Z"/><path class="cls-6" d="M659.68,277.74l-4.57-11.12L643.66,233.8c-1.61-5.22-2.61-12.42-1.06-17.67a53.58,53.58,0,0,0,.14-27.73c-7.75-30,4.9-46.51,4.9-46.51,16.29-28.77,58.05-30.76,58.05-30.76,51.76.06,58.52,49.83,58.52,49.83,10,32.85-15.13,61.8-15.18,61.85-3.18,3.67-3.26,9.35-4.65,13.76a41.76,41.76,0,0,1-6.94,13c-6.83,8.7-15.9,17.15-25.38,22.6-9,5.17-26.63,10.89-39.33,11.41C667.47,283.8,662.3,284.12,659.68,277.74Z"/><path class="cls-42" d="M744.23,242.38c-.93-23.59-1.45-22.11-1.45-22.11-.9-6.87-13.66,8.68-13.84-.31-.81-41.15-16.73-59.94-22.73-62.81-16.28-7.76-33.12-9.38-46.26-6.36-20.59,4.75-18.39,32.36-18.39,32.36-22.85-100.34,91.71-73.72,91.71-73.72C789,121.07,786,173.18,786,173.18c9.57,55.3-43.59,90.12-43.59,90.12Z"/><path class="cls-9" d="M740.21,234.54a11.05,11.05,0,0,0,7.28,1.82c8-.52,14.25-8.34,14-17.45s-7-16.06-14.94-15.54a14,14,0,0,0-9.67,5c-3.64,4.22-3.38,11.63-2.22,16.69C735.55,229.12,737.34,232.55,740.21,234.54Z"/><path class="cls-17" d="M743.72,212c.22-4.8,10.13-.73,8.8,2-.77,1.59-2.41,2.82-3.68,4a7,7,0,0,0-2.7,5.38c0,.26,0,1.1.25,1.28,1.3.8,5.16-4.07,6-5.1,1.67-2,1.74-5.34.76-7.69a4.77,4.77,0,0,0-5.47-3.31c-2.17.24-4.37.5-4.11,3.19,0,.05.12.5.14.25Z"/><path class="cls-17" d="M747.07,216.8c-1.07-1-2-.07-3,.72a4.59,4.59,0,0,0-1.59,2.9,11.28,11.28,0,0,0,1.61,7.92,6,6,0,0,0,5.32,2.49c2.92-.22,3.65-2.84,3.63-5.31,0-.65,0-2.22-.69-2.59s-1.17.7-1.6,1.19a4.19,4.19,0,0,1-2.42,1,5.25,5.25,0,0,1-4.42-1.71,2.21,2.21,0,0,1-.48-.73c.08,1.62.18,2,.3,1.07a4.64,4.64,0,0,1,.5-1.17c.61-1.14,1.71-2,2.41-3.07.34-.5.92-2.27.4-2.76Z"/><path class="cls-10" d="M739.91,236.23a4.9,4.9,0,1,0,4.65-5.15A4.92,4.92,0,0,0,739.91,236.23Z"/><path class="cls-45" d="M660.94,327.37l-14.66,2.26s-28.45,55-35.17,113.24c7.19,47.81,21.61,120.2,39.1,125.37,59.27,17.53,121.14-10,121.14-10L799.7,445C723.56,415.4,762,328.38,762,328.38l-16-3.83S689.5,366,660.94,327.37Z"/><path class="cls-45" d="M630.87,364.91s-29.75,41.2-34.93,62.43c-3.41,14,20.91,45.37,40.54,50.91C647.21,481.27,647.46,367.68,630.87,364.91Z"/><path class="cls-6" d="M766.76,1484.7c-22.54,5.24-44.8-.8-44.8-.8l22.8-15.3s23.79-32.71,27.92-44c2.65-7.24,2.15-30.21,2.15-30.21h29.31l1,16.35,12.1,24.22s1.68,11.66-19.4,15.28A424.52,424.52,0,0,1,766.76,1484.7Z"/><path class="cls-43" d="M744.76,1468.6c8.07,3.2,22,3.35,28.73-4.31,27.19-30.85,31.69-53.56,31.69-53.56,15.6,15.23,12.52,28.9,12.52,28.9l-.75,5.61-5.81,43.29h-3l-10.41-34.87-18.35,34c-48.16,9.25-60.51-3.22-60.51-3.22Z"/><path class="cls-6" d="M811.36,1059.58l-64,19s24.64,301.25,27.48,315.85c0,0,29.38,8.3,29.31,0-.16-20.05,25.66-143.22,27.92-174.62C835.94,1165.8,850.61,1129.61,811.36,1059.58Z"/><path class="cls-44" d="M829.78,718.2l12.64,297.89s-162.27,37.55-274.94-14c0,0,10.31-254.83,56.13-339.34C623.61,662.8,820.59,644.57,829.78,718.2Z"/><path class="cls-6" d="M755.72,353.29c-13.76,20.16-6,39.72,5.12,61,11.32,21.64,80.34,36.61,77,12.41-6.43-47.57-11.3-74.66-32.49-86.79C787.43,329.63,769.48,333.11,755.72,353.29Z"/><path class="cls-6" d="M753.57,393.25l34.71-28,42.13,18s44.93,139.5,41.81,173.55c-3.33,36.27-23.4,13.08-32.48,4.74C839.74,561.51,753.61,421.72,753.57,393.25Z"/><path class="cls-6" d="M871.4,554s5.48,98.2-9.53,163.82c0,0-19,11.28-20.5-2.51-2.56-23.42-22.23-138.79-17.23-179.7C825.76,522.39,871.4,554,871.4,554Z"/><path class="cls-6" d="M853,798.16s-5.11,2.51-1.66-9.48l4-18.72s-4.06,31.18-14.72,37.1c0,0-1.9,1.74-4-2.39,0,0,9-26.56,9-37.36,0,0-2.35,32.48-14.36,41.82,0,0-6.09,2.58-6-3.82,0,0,9.22-23,10.07-41.27,0,0-7.18,31.75-13.82,40.54,0,0-6.77,1.41-5.31-6.13,0,0,5.16-19,9.09-40.92,0,0-12.4,10.49-21.84,5.59l28-40.89,9.82-6.92,20.5,2.51,2.39,24.27s1.45,25.41-6.08,49.26C858.18,791.35,856.19,797.41,853,798.16Z"/><polygon class="cls-46" points="624.63 469.89 685.48 603.81 561.6 592.38 505.75 460.94 624.63 469.89"/><path class="cls-3" d="M525.37,502.41c2.36,4.34,4.89,8.27,8.68,11.28,4.32,3.42,11.55,2.38,14.33,4.88,4.85,4.35,1.41,16.1-8.82,27.89-8.87,10.23-15.41-3.16-18.4-11.39-4.41-12.17-4.12-17.6.91-27.41Z"/></g></g></svg>