<svg xmlns="http://www.w3.org/2000/svg" viewBox="0 0 1926.16 1274.83"><defs><style>.cls-1{fill:#96d9c9;}.cls-2{fill:#3c8f7c;}.cls-3{fill:#50bfa5;}.cls-4{fill:#184655;}.cls-5{fill:#86b1f2;}.cls-6{fill:#fae0b2;}.cls-7{fill:#355389;}.cls-8{fill:#466eb6;}.cls-9{fill:#ff4c16;}.cls-10{fill:#f47458;}.cls-11{fill:#b75742;}.cls-12{fill:#13375b;}.cls-13{fill:#f7a491;}.cls-14{fill:#9bc1f9;}.cls-15{fill:#f7cc7f;}.cls-16{fill:#f48c7f;}.cls-17{fill:#07345a;}.cls-18{fill:#fff;}</style></defs><g id="Layer_2" data-name="Layer 2"><g id="Layer_1-2" data-name="Layer 1"><path class="cls-1" d="M1150,396.37l23.4-22.64c-7.32-40.94-45.73-60.64-71-63.33C1034.32,303.18,999.6,350,985,425.1c-26.67,137.07,6.91,712.64,6.91,712.64,2.51-15.28,187.48-593.29,182.74-752.09Z"/><path class="cls-2" d="M219.07,848.35l-2.9,21.47L209.22,845c-19.53-6.15-36.5-8.26-49.95-5.2-120.17,27.31,87.49,192.58,87.49,192.58s-66.18-41.55-130.28-67.86l-.81,21.77-8.2-24.6c-49.8-19.49-96-28.5-105.24-.36-8.69,26.5,8.8,51.59,38.9,73.93l34.6,1.21L55.33,1045c69.52,44.53,184.51,76.38,224.2,83.62-38-6-130.79-18-185.81-6.17l8.64,14.37L80.63,1126c-19.25,6.21-31.21,16.49-29.92,32.68,2.46,31,136.78,42.11,136.78,42.11l490.7-4.56,2.73,1.37S377.26,906.29,219.07,848.35Z"/><path class="cls-3" d="M1758.36,1134.74c-9.47-43.94-105.56-56.86-228-32.77,43.61-14.91,103.53-48.83,134.57-64.33l-21.23-13.51,42.63,2c34.87-20.41,52.3-40.46,40.91-58.6-8.5-13.55-27.17-19.18-52.46-19.11l-13.33,23.84,2.77-23.51c-63.81,3.68-78.28-6.73-164.36,28.06,53.79-27.92,61.56-36.58,65.09-47.79l-29.13-12.75h34.14c27.59-29.69,71.37-88.41,53.21-115.48-15-22.33-80.76,8.67-122.75,24.78l-17.86,40.17,3.62-34.32c-133.5,58.15-88.25,11.49-88.25,11.49s139.36-288.28,57.26-281.8c-32.41,2.56-67.26,22.09-101.49,53.39l-.87,28.66L1342.6,625c-24.93,24.44-49.62,54-73.18,85.81,31.95-67.11,56.18-133,58.59-182.11l-24.39-2.95L1327.69,509c-2.26-24.79-12.09-43.55-32-53.46-30.53-15.21-62.56,7.8-94.1,53.52l7.79,41.27-19.57-23.12c-112.92,184-216.18,637.16-216.18,637.16l-8.19,24.58,331.77,16.38S1777.48,1223.5,1758.36,1134.74Z"/><path class="cls-4" d="M1920.45,1207.46H21.82a5.5,5.5,0,1,1,0-11H1920.45a5.5,5.5,0,1,1,0,11Z"/><path class="cls-5" d="M1270.46,1012.23H492.34c-29.72,0-53.81-21.86-53.81-48.82v-29c0-27,24.09-48.82,53.81-48.82h778.12c-35.59,35.29-36.21,89.24-1.43,125.2Z"/><path class="cls-6" d="M1259.56,900.07H868a48.83,48.83,0,0,0-48.83,48.82h0A48.83,48.83,0,0,0,868,997.72h391.59A93.88,93.88,0,0,1,1259.56,900.07Z"/><path class="cls-7" d="M1235.42,747.07c1.71-2.93-.88-6.31-4.82-6.31H610.91c-48.57,0-87.94,32.49-87.94,72.57h0c0,40.08,39.37,72.58,87.94,72.58h619.86c4,0,6.55-3.42,4.83-6.35h0C1211.06,837.61,1211.12,788.84,1235.42,747.07Z"/><path class="cls-6" d="M1230.48,756.37H814.71A55.61,55.61,0,0,0,759.1,812v4.18a55.61,55.61,0,0,0,55.61,55.61h416.66C1212.74,834.79,1212.53,793.34,1230.48,756.37Z"/><path class="cls-6" d="M481.26,734.31H881.17c35.47,0,64.22-31,64.22-69.25h0c0-38.24-28.75-69.24-64.22-69.24H481.26c30.57,38.39,31.76,94.7,2.86,134.55Z"/><path class="cls-8" d="M940.12,665.06h0c0-38.24-29.08-69.24-65-69.24H474a3.49,3.49,0,0,1-3.37-3.62h0a3.48,3.48,0,0,1,3.37-3.55H1110.4c39.59,0,71.69,34.21,71.69,76.41h0c0,42.21-32.1,76.42-71.69,76.42H474a3.48,3.48,0,0,1-3.37-3.55h0a3.5,3.5,0,0,1,3.37-3.62H875.17C911,734.31,940.12,703.31,940.12,665.06Z"/><path class="cls-9" d="M968.47,814.53h-42.8c-9.2,0-16.67,2.85-16.67,6.37v.57h59.47Z"/><path class="cls-10" d="M1005,830.51c0-8.83-11.18-16-25-16H925.09c10.45,0,18.93,5.42,18.93,12.12L943.76,998l30.35-22L1005,998Z"/><path class="cls-11" d="M1590.39,1012H434.19a65,65,0,0,0-65,65v54.68a65,65,0,0,0,65,65h1156.2l-.6-.63A132.38,132.38,0,0,1,1590.39,1012Z"/><path class="cls-6" d="M1569.92,1039.31H951.84a65,65,0,0,0-65,65h0a65,65,0,0,0,65,65h618.07A132.61,132.61,0,0,1,1569.92,1039.31Z"/><path class="cls-12" d="M1266.45,1104.66h-50.13a19.52,19.52,0,0,0-19.52,19.52v1.75h69.65Z"/><path class="cls-7" d="M1218.37,1104.73c12,0,29.87,10.14,40,22.65l118.88,147.45,69.84,0L1334,1134.56c-13.31-16.5-36.9-29.87-52.7-29.86Z"/><path class="cls-11" d="M172.12,1180.49l24.36-5.69s19.76,1.25,38.2-2.49c0,0,1.86,4.89,2.66,15,.14,1.74-2.37,10.43-4.1,10.69-6.27,1-17.31-.12-36.89.33,0,0-30.82,3.64-47.32-1.81S172.12,1180.49,172.12,1180.49Z"/><path class="cls-4" d="M441.28,781.72c1.35,14.14,13.22,19.12,24.29,28.07,7.43,6,6.15,22.24.47,32.32-14.38,25.52-2.13,28.67,9.46,47.42,27.92,45.16-58.59,55.13-68.85,58.5s-17.23,7.44-23.3,6.76c-18.31-2-35.05-28-44.34-52.1s13.26-25.33,14.42-39.15S328.18,846.75,336,820.65c8.46-28.24,20.42-52.17,36.29-60.76,26.27-14.2,58.2.65,65.46,12.06A22,22,0,0,1,441.28,781.72Z"/><path class="cls-6" d="M443.31,1090.85c2.28,5.66,14.79,25.68,14.79,25.68l-175.67,1.75-2.74-36c48.23-.39,95.91-21.71,140.35-37C421.17,1048,442.21,1088.1,443.31,1090.85Z"/><path class="cls-3" d="M318.78,952.62s9.44-66.59,24.61-73.51,97.34,2.67,109.63,10.18S444.84,975,441.7,996.88c-.19,1.31-.39,2.62-.61,3.92a183.23,183.23,0,0,0,9,93.77c-45,13.65-56.62,21.16-104.83,19.82l-18-105.33S312.89,958.1,318.78,952.62Z"/><path class="cls-13" d="M408.64,835.29s3.78,36.66,7,45.65-8.68,27.29-28.11,32.35-5.29-19.53-5.75-29-2.34-54.5-2.34-54.5Z"/><path class="cls-10" d="M409.1,839.5a36.23,36.23,0,0,1-8.89,7.33c-7.34,4.33-14.06,5.28-19.86,3.94l-.89-21,29.18,5.54S408.81,836.9,409.1,839.5Z"/><path class="cls-13" d="M401.84,768.33a33.35,33.35,0,0,1,18.22,14.22c6.74,11.19,10.49,43.56-13.57,57.74s-41.59-7.74-41.15-28.48S371.2,763.57,401.84,768.33Z"/><path class="cls-13" d="M358,803.12c.26,5.39,3,9.63,6.15,9.47s5.45-4.66,5.18-10.05-3-9.62-6.14-9.46S357.78,797.74,358,803.12Z"/><path class="cls-13" d="M419.39,811.38c-1.89,5.32-.52,10.69,3.06,12s8-2,9.94-7.31.53-10.69-3.06-12S421.29,806.05,419.39,811.38Z"/><path class="cls-2" d="M453,889.29s-14,7.35-22.6,27.86S451.09,1042.3,457.33,1049s23.5,7.75,26.44-8.64S476.79,894.47,453,889.29Z"/><path class="cls-14" d="M369.23,875.28l24.15,145.07-94,15.17L269.5,899.81S346.86,868.49,369.23,875.28Z"/><path class="cls-14" d="M187.74,879.76A50.51,50.51,0,0,1,216,877.18c17.6,3.43,45.57,10.57,56.8,22.63,16.94,18.21,32.62,138.66,32.62,138.66l-73.09-16.38L187.74,879.76Z"/><path class="cls-15" d="M439.21,1127.91c-12.29-34.14-151.57-158.4-188.44-148.84l19.8,75.79S312,1178.23,352.5,1194.14s78.52-2,78.52-2S451.5,1162.05,439.21,1127.91Z"/><path class="cls-13" d="M389.2,928.54c-1.73,3.47,9.34,9.66,12.56,12s16.57-.07,16.57-.07S391.13,924.68,389.2,928.54Z"/><path class="cls-16" d="M270.2,1091s-35.39,73.55-35.51,81.21c-.17,11-51.18,8-40.1,3.28,2.55-1.08,10.58-5.15,11.19-5.68,3.3-2.83,32.67-94.17,32.67-94.17Z"/><path class="cls-15" d="M281.49,1003c-1.71-1.88-19.65-9-33.46,8.2s-40.28,151.12-40.28,151.12l32.55,3.19S321.31,1046.89,281.49,1003Z"/><path class="cls-10" d="M176.2,902.55l41.87,122.07a13.53,13.53,0,0,0,10.83,9.12c39.26,5.55,59.74,8.37,59.74,8.37s7.66.4,15.78.51l89.86-9.59c7.82-.84,13.27-8.41,11.81-16.41L384.22,896.77a13.47,13.47,0,0,0-15.34-11.14l-86.45,14.53-22.73-.61-68-15.23C181.41,882,172.68,892.29,176.2,902.55Z"/><path class="cls-13" d="M359.09,961.92s24.12,4.47,32.36,4.23,18.91,2.35,18.91,2.35,26.92,63.3,30.78,70.36c11.53,21.08,43.5,18.59,43,1-.42-14-55-101.56-69.54-101.12s-59.95-9-61.32-3.27c-.73,3.11,41.85,4.56,35.13,7.2-4.17,1.64-37.5-2.11-37.38,1.81s30.11,4.3,33.34,7.34-31.92-3.72-31.71,2.93c.1,3.36,31,.94,34.34,6C388.37,962.9,356.54,955.33,359.09,961.92Z"/><path class="cls-13" d="M196.46,951.59a3.31,3.31,0,0,0-4.55,2.26c-.48,2-.58,4.53.94,6.17,3,3.25,24.12,6.36,24.24,3.22C217.17,960.83,203,954.43,196.46,951.59Z"/><path class="cls-13" d="M192.36,959.78s-2.11,7.91-.28,8,24.66,2.32,25.67-.39S195.3,958.19,192.36,959.78Z"/><path class="cls-13" d="M191.38,968s-.65,3.51,1.24,5.54,23.14.7,23.92-2.68S192.13,965.36,191.38,968Z"/><path class="cls-13" d="M194.62,975.37s0,2.68,1,3.83,16.77-.44,18.33-3.79S196.45,971.9,194.62,975.37Z"/><path class="cls-13" d="M247.86,1161s-7.49,27.12-15,45.06c-4.93,11.74-6.2,23.45-9.46,29.31-8.25,14.82-21.73,15.41-32.45,6.51s3.66-46.45,3.66-46.45l33.81-47.57Z"/><path class="cls-10" d="M223.38,1235.4c2.9-5.21,4.24-15,8-25.39-5.17,3-13.85,5.27-18.57,4-17.3-4.63-18.17-18.56-18.17-18.56s-18,38.49-7.32,47.39S215.13,1250.22,223.38,1235.4Z"/><polygon class="cls-11" points="282.44 900.16 310.13 1043.46 293.46 1042.46 288.64 1042.12 259.72 899.55 282.44 900.16"/><path class="cls-6" d="M378.89,1185.77c9.48,17.44,28.37,20.15,45.38,18.72,18.81-1.58,39.52-11.87,45.08-33.47,5.94-23.06-1.87-51.6-15.57-69.7-70.1-92.63-70.64-101.76-98.55-114.06-30.13-13.29-142,177.87-142,177.87l30.73,15.7s46.09-38.52,75.53-72.3c3.46-4,13.32-24.52,13.32-24.52S372.62,1174.24,378.89,1185.77Z"/><path class="cls-15" d="M379.92,628.66c-29.63,4.48-38.91,43.17-14.56,60.85a22.55,22.55,0,0,1,8.6,13.16l4.24,18.11a9.83,9.83,0,0,0,11,7.48l11.22-1.7a9.82,9.82,0,0,0,8.34-10.41c-1.31-18.65-3.14-25.43,3-33.67C429.86,658.4,409.56,624.18,379.92,628.66Z"/><path class="cls-6" d="M386.39,714.12h0a2.73,2.73,0,0,1-3.08-2.32l-5.52-39.49-9.25-7.92a2.73,2.73,0,0,1,3.55-4.14l10.82,9.26,5.8,41.53A2.73,2.73,0,0,1,386.39,714.12Z"/><path class="cls-6" d="M400.13,713.72h0a2.73,2.73,0,0,0,2.26-3.13L396,671.24l6.49-10.3A2.73,2.73,0,1,0,397.9,658l-7.6,12.05L397,711.46A2.72,2.72,0,0,0,400.13,713.72Z"/><path class="cls-1" d="M373.83,702.23c0,.15.09.29.13.44l4.24,18.11a9.83,9.83,0,0,0,11,7.48l11.22-1.7a9.82,9.82,0,0,0,8.34-10.41c-.58-8.29-1.27-14.24-1.31-19Z"/><path class="cls-10" d="M374.34,340.38l-11.74-17-20.64,0a2.83,2.83,0,0,1-2.26-4.55l12.52-16.41-6.42-19.62a2.83,2.83,0,0,1,3.63-3.56l19.48,6.84L385.58,274a2.84,2.84,0,0,1,4.51,2.36L389.61,297l16.72,12.1a2.83,2.83,0,0,1-.85,5L385.71,320l-6.34,19.64A2.84,2.84,0,0,1,374.34,340.38Z"/><path class="cls-15" d="M428,553.32l.06-37.05-30.49-21.06a5.09,5.09,0,0,1,1.33-9l35.26-11.39,10.6-35.5a5.09,5.09,0,0,1,9-1.53l21.73,30,37-.88a5.08,5.08,0,0,1,4.23,8.08l-21.83,29.94,12.29,35a5.09,5.09,0,0,1-6.39,6.53l-35.21-11.51-29.45,22.49A5.09,5.09,0,0,1,428,553.32Z"/><path class="cls-14" d="M1461.37,371.14l-8.62-12.47-15.17,0a2.08,2.08,0,0,1-1.66-3.34l9.2-12.06-4.72-14.41a2.08,2.08,0,0,1,2.67-2.61l14.31,5,12.24-8.94a2.09,2.09,0,0,1,3.32,1.73l-.36,15.16,12.29,8.88a2.09,2.09,0,0,1-.63,3.69l-14.52,4.34-4.65,14.43A2.08,2.08,0,0,1,1461.37,371.14Z"/><polygon class="cls-16" points="1219.69 187.84 1200.63 184.63 1189.46 200.88 1168.34 195.77 1161.78 216.74 1137.65 212.02 1129.23 230.59 1105.26 229.84 1105.55 220.77 1123.46 221.33 1132.35 201.74 1155.55 206.28 1162.22 184.95 1185.52 190.59 1196.43 174.72 1214.1 177.69 1219.08 165.78 1227.45 169.28 1219.69 187.84"/><polygon class="cls-3" points="678.49 246.93 664.53 251.22 655.16 229.52 633.98 233.26 624.3 218.17 616.66 223.07 629.6 243.25 649.67 239.7 659.43 262.27 680.43 255.83 678.49 246.93"/><path class="cls-15" d="M1528,568.94c1.07-2.76.7-12.63,14.42-22.13,5.64-3.86,10.27-7.15,11.52-11.65,2.16-7.78-6-11.51-14.18-11.48a7.81,7.81,0,0,1-7.8-7.57h0a7.84,7.84,0,0,1,7.47-8.08,50.66,50.66,0,0,1,16,1.83c17.5,4.86,22.77,16.74,19.72,27.75-2.8,10.07-10.87,15-17.46,19.14-11.08,7-11.07,14.89-12,17.08Zm-8.53,17.34c2-7,8.26-10.71,15.15-8.79,7.16,2,10.4,8.31,8.58,15.37-1.91,6.9-8.12,10.74-15.28,8.76S1517.56,593.17,1519.47,586.28Z"/><path class="cls-15" d="M943.43,62.55c-27.25,0-40.86,33.52-21.37,52.73a20.58,20.58,0,0,1,6,13l1.35,16.86a8.94,8.94,0,0,0,8.91,8.23h10.32a8.94,8.94,0,0,0,8.91-8.23c1.36-17,.64-23.31,7.3-29.87C984.29,96.08,970.69,62.55,943.43,62.55Z"/><path class="cls-6" d="M937.63,140.27h0a2.49,2.49,0,0,1-2.45-2.51l.4-36.26-7.23-8.38a2.48,2.48,0,1,1,3.75-3.24l8.46,9.8-.42,38.14A2.47,2.47,0,0,1,937.63,140.27Z"/><path class="cls-6" d="M950,141.78h0a2.47,2.47,0,0,0,2.45-2.5l-.4-36.26,7.24-8.38a2.48,2.48,0,0,0-3.76-3.25l-8.46,9.81.42,38.13A2.47,2.47,0,0,0,950,141.78Z"/><path class="cls-1" d="M928,127.87c0,.14,0,.28,0,.42l1.35,16.86a8.94,8.94,0,0,0,8.91,8.23h10.32a8.94,8.94,0,0,0,8.91-8.23c.61-7.54.8-13,1.41-17.28Z"/><polygon class="cls-6" points="995.87 16.39 972.31 56.33 1012.25 26.63 995.87 16.39"/><polygon class="cls-6" points="900.1 6.09 924.18 47.11 920.08 0 900.1 6.09"/><polygon class="cls-6" points="858.22 64.81 896.53 79.88 857.42 82.23 858.22 64.81"/><polygon class="cls-6" points="976.41 118.8 991.77 138.26 1003.04 124.94 976.41 118.8"/><polygon class="cls-6" points="991.77 82.95 1026.59 68.62 1027.62 83.98 991.77 82.95"/><polygon class="cls-6" points="900.62 121.87 867.85 137.23 878.09 149.52 900.62 121.87"/><path class="cls-8" d="M247.25,819.23a13.64,13.64,0,0,1,8.55-17.11c7.27-2.4,13.9,1.17,16.66,8.41s-.31,14.53-7.88,17.26S249.78,826.75,247.25,819.23Zm-2.38-21.1L222.21,744a8.48,8.48,0,0,1,4.95-11.26l5.52-2a8.49,8.49,0,0,1,11,5.5l17.18,56.12Z"/><path class="cls-16" d="M1276.94,749s58.4,25.45,63.55,26.58c3.23.7,40.35-37.76,60.58-52.79.94-.7,4.54-5.81,5.54-6.32,12-6-8.31,28.79-8.31,28.79s-43.06,54.76-52.8,59.45c-12.23,5.89-72.7-24-72.34-25.73Z"/><path class="cls-4" d="M1267.68,694.36c2.51-17.21,14.46-53.84,3.44-68.49-15.5-20.6-48.24-19.71-63.71.08-7.09,9.07-10.93,20.2-14.67,31.09-2.41,7-4.85,14.1-8.25,20.72-3,5.92-6.52,13.32-12.3,16.93-25.71,16-54.51,26.32-56.36,62.4-2.2,42.78,44.67,96.31,102.22,70.4,22-9.92,50.89-42,60.31-64.18,4.25-10,2.21-9-.13-24.2C1276.13,725.46,1265.65,708.22,1267.68,694.36Z"/><path class="cls-7" d="M1236.37,720l78.18,43-18.44,28s-58.86-22.44-70.76-25.65S1222.82,718.78,1236.37,720Z"/><path class="cls-13" d="M1235,682.63s-2,29.77-3.55,38.12c-1.57,8.62-2.53,44.53,15.41,48.91s11.2-44.24,11.5-52.95,2-37.05,2-37.05Z"/><path class="cls-10" d="M1234.77,686.2a34.11,34.11,0,0,0,4.89,5.74c6.61,6.23,13.41,8.26,19.61,7.45.56-9.87,1.17-19.73,1.17-19.73l-25.41,3S1234.93,684,1234.77,686.2Z"/><path class="cls-13" d="M1253.56,625.64a30.7,30.7,0,0,0-19.24,9c-8.35,8.61-18.33,36.76.33,54.37s37.13,2.48,41-16.14S1282,627.68,1253.56,625.64Z"/><path class="cls-4" d="M1263.79,626.52s-11.38,29.36-38.25,26.88c-12.17-1.13-14.93,15.5-14.93,15.5s10-39.47,22.46-45.34S1263.79,626.52,1263.79,626.52Z"/><path class="cls-13" d="M1229,660.5c.61,5.15-1.71,9.66-5.19,10.07s-6.8-3.42-7.41-8.57,1.71-9.66,5.19-10.07S1228.39,655.35,1229,660.5Z"/><path class="cls-11" d="M1428.75,670.15l-66.18,135.23c-1.58,3.23-1.09,7,1.07,8.25L1412,841.94l60.44-119.84s-26.33-39.4-36.21-54.17C1434.39,665.19,1430.63,666.31,1428.75,670.15Z"/><path class="cls-6" d="M1371.06,800.94l57.59-117.67c1.88-3.83,5.64-5,7.47-2.23,8,12,20.15,30.15,28.87,43.19l-54.25,107.56-38.6-22.6C1370,807.92,1369.48,804.17,1371.06,800.94Z"/><path class="cls-16" d="M1402.52,713.91a13.87,13.87,0,0,1,5.14-4.11c2.79-.75,6.17-.64,6.72,1.16.81,2.62-7.44,5.52-7.44,5.52l-4.49,6.51S1400.35,717.67,1402.52,713.91Z"/><path class="cls-13" d="M1232.76,712.71s20.38,16.84,26.23,22.69,16,12.88,16,12.88l-16.48-22.78L1248,715.76Z"/><path class="cls-16" d="M1485.7,982.48c-3.16-2.63-6-10.14-7.21-13.44-6.84-35.44-39.23-131.31-74.5-131.31-30.72,0-125.63,74.42-170,117.44-12.82,12.42-12,1.88-4.1,4.78,4.69,1.73,36.38,54.44,41.45,54.67,15.5.71,29.83-9.67,42.76-16.89,19.72-11,33.43-23.57,44.89-40.67,29-43.33,39.91-68.84,48.65-85.42,0,0,8.25,34.11,12.29,42.33,9.14,18.58,36.44,64.34,47.12,82.17l41.87-1.14S1489.8,985.89,1485.7,982.48Z"/><path class="cls-13" d="M1406.72,857.53s-140.65,65.55-149.53,88.08-2,56,18.44,62.82,147.48-101.74,147.48-101.74,16.39,30,39.6,50.53C1475.09,968.14,1496,977,1508,985c10.45,7,12.8,13.83,12.8,13.83l29.36,1.36s-4.95-1.69-13.83-13.65C1506.3,946.18,1436.75,852.26,1406.72,857.53Z"/><path class="cls-12" d="M1352.44,849.34s45.18,48.7,54.06,112.88c0,0-70.79,30.5-105.61,48.94s-73.74-.68-86-21.17,0-78.18,0-78.18l72.38-11.26Z"/><path class="cls-7" d="M1459.64,984c-3.6-1.37-4.86,16.84-5.45,20.9-.67,4.57,1.51,7.67,2.07,8,1.49,1,59.49,2.17,70.58-.8a10.85,10.85,0,0,0,2.6-1.39c8.14-7.1-29.54-26-37.14-24.37C1485.54,987.75,1475.83,990.13,1459.64,984Z"/><path class="cls-8" d="M1231.59,720.63s-11-.1-22.83,25.32c-14.51,31.24,6.19,150.45,4.68,167.47,0,0,5.12,5.87,34.89,10.17a46.1,46.1,0,0,0,41.3-15s-6.72-46,3.45-89.34c5.51-23.46,8.42-46.21-13.35-67.3S1231.59,720.63,1231.59,720.63Z"/><path class="cls-8" d="M1508.33,985.09c-3.6-1.37-6.7,16.17-6.43,20.45.28,4.61,1.46,8,2,8.35,1.49,1,59.55,1.88,70.64-1.1a11.23,11.23,0,0,0,2.6-1.38c8.14-7.11-33.77-24.89-41.37-23.31C1529,989.5,1524.52,991.26,1508.33,985.09Z"/><path class="cls-10" d="M1469.51,664.55l-109.7,159.73c-2.53,3.68-1.93,8.17,1.25,9.35l74.19,27.65L1523,735.5,1479.21,663C1477.24,659.69,1472.29,660.5,1469.51,664.55Z"/><path class="cls-13" d="M1443.43,785.66c-1.4-2.72-12.8,3.32-12.8,3.32s-10.14,1.76-10.86,1.38,6.81-1.06,6.81-1.06,12.46-4.26,12.32-5.66c-.57-5.74-8.37,1.41-14.49,1.67a80.07,80.07,0,0,1-14.23-.64c-1.79-1,2.77-3.27,2.77-3.27s6-2.69,5-4.27c-2.33-3.82-16.34,3.45-19.29,6.15-2,1.81-4.44,5.32-7.88,7.26-15,8.47-32.91,23-54.08,33.19-7-5.89-74.66-66.6-76.36-68.08l-37,29.1s106,80.73,111.88,80.53c7.4-.24,51.52-46.8,63.46-57.9,1.81-1.68,13.15-2.94,16.27-2.51,6.93,1,19.92-4.47,19.92-4.47,4-4.23-14.76,0-13-1.06.79-.48,5.38-1,9.94-1.6s8.86-3.33,9.42-4.6c1.11-2.49-10.45,1.08-10.45,1.08l-9.63.59,9.22-1.87S1444.81,788.31,1443.43,785.66Z"/><path class="cls-5" d="M1250,737.19c-12-12.23-34.92-10.45-41.62,7-1.86,4.85-1.78,18.77.35,23.9,8.49,20.48,58,53.94,58,53.94l27.31-37.22Z"/><path class="cls-13" d="M759.08,381.28c0-1.57,1.93-11.69,1.93-11.69s-4.5-14.35-5-14.39c-9.27-.66-16.26,5.64-14.7,14.11l.09.28A43.08,43.08,0,0,0,775,399.11c3.6.65,7.41,1.33,11.32,2a63.61,63.61,0,0,1-2.91-18.89C769.82,382.12,759.08,381.86,759.08,381.28Z"/><path class="cls-7" d="M915.8,318c-.26-.77-81.48,52.06-81.48,52.06s-34.67.34-60.28.12a82.5,82.5,0,0,0,3.22,22.63c25.31,4.79,54.14,9.85,60.7,9.34,12.22-.94,73.52-31.52,73.52-31.52S916,318.53,915.8,318Z"/><path class="cls-8" d="M916.71,515.23c-.17-1.33-17.33-60.18-19.12-112.89-1.39-40.88,11.27-77.52,17.75-84.21,2.4-2.5,24.7-7.85,24.7-7.85l-8.12,13.47c-8.25,15.58-10.49,29.38-14.07,46.95-10.39,51,36.28,153,33.91,153.63C949.11,525.07,917.37,520.45,916.71,515.23Z"/><polygon class="cls-14" points="738.71 309.5 724.45 318.81 767.07 390.55 780.47 332.3 738.71 309.5"/><polygon class="cls-14" points="747.52 298.22 765.43 357.76 779.78 332.04 747.52 298.22"/><polygon class="cls-14" points="865.83 291.35 879.61 341.34 778.08 332.13 865.83 291.35"/><path class="cls-13" d="M807.92,502.86s-43.15,52.72-43.27,60.38c-.17,11-51.17,8-40.1,3.29,2.55-1.09,10.58-5.15,11.19-5.69C739,558,773,491.46,773,491.46Z"/><path class="cls-17" d="M702.08,571.56l32.81-10.21s11.32,5.77,29.76,2a43.8,43.8,0,0,1,5.61,17.84c.14,1.74,1,6.92-.73,7.18-6.27,1-23.63.56-43.21,1,0,0-26.39.31-42.88-5.14S702.08,571.56,702.08,571.56Z"/><path class="cls-11" d="M1016.85,515.45s-38.82-8.87-75.1-34.82c-42-30-89.22-61.26-107.88-58.72-15,2-102.42,122.22-102.42,122.22l42.33,18.44,76.47-78.52s78.12,80.53,103.79,86C1012.49,582.6,1031.17,539.49,1016.85,515.45Z"/><path class="cls-15" d="M722.45,318.82l58.87,124.73a2.07,2.07,0,0,0,1.39,1.12L822,455.6,771.78,332,725,316A2,2,0,0,0,722.45,318.82Z"/><path class="cls-17" d="M922.81,201s10.87-14.83,23,0c0,0,7.23-5.35,13.67,1.74,0,0,13.52-6,19.6,14.57,0,0,7.06-2.28,9.11,6.19a21.49,21.49,0,0,1-1.6,14.77s4.45,2.53,3.61,10.67c-.72,6.92-6.15,8.65-6.15,8.65s-.07,11.51-4.55,15.55-11.37,3.24-11.37,3.24-1,6.37-6.8,6.55-13.59-4.38-19.69-1.11-23.08,2.79-23.08,2.79-19.75-6-16.58-25.77c0,0-11-7.63-3.7-19.36,0,0-8.39-15.86,2.78-27.26S922.81,201,922.81,201Z"/><path class="cls-13" d="M862.88,670.45s2.39,64.86,3.87,75.85-27.52,43.87-23.82,32.42c.86-2.64,3.05-11.36,3.06-12.18,0-4.35-10.76-78.34-10.76-78.34Z"/><path class="cls-17" d="M832,799l13.82-31.46s11.77-4.76,21.05-21.13A43.88,43.88,0,0,1,884,753.86c1.41,1,5.88,3.78,5,5.26-3.39,5.36-15.09,18.2-27.59,33.28,0,0-17.07,20.11-32,29S832,799,832,799Z"/><path class="cls-10" d="M834.55,738c3-3.08-30.7-169-14.34-185s125.63-39.6,125.63-39.6l14.34-50.53s45.69,13.4,64.18,41c10.12,15.08-.22,49.46-2,53.25-15.61,32.5-54.17,34.14-82.23,33.86-25.8-.27-71.63-.63-71.63-.63L868.35,737s-11.27,2.73-20.15,2.39C836.06,738.94,834.55,738,834.55,738Z"/><path class="cls-18" d="M935.85,313.83l29.59-10.64s.89.05,1.16,0c3.18-.41,38.1,113.85,49.5,157.07s-3.53,35-3.53,35-26.11,16.27-56.49,17.41c-31.58,1.19-25.26-36.87-25.26-36.87s-16.63-79.46-14.68-106.51S935.85,313.83,935.85,313.83Z"/><path class="cls-13" d="M936.32,290.59l-.12,14.57,0,2.58s-2,24.94,5.14,28.79,24.1-33.33,24.1-33.33l-7.68-42.31Z"/><path class="cls-10" d="M960.23,274.65c-3.57,15.26-15.32,25.85-24,30.48l.11-14.54,21.42-29.7Z"/><path class="cls-13" d="M936.92,217.93a22.71,22.71,0,0,0-27.21,21.69,170.7,170.7,0,0,0,.91,21.86c2.14,19.74,14.76,37.62,23.71,36.48s32-17,29.39-45.08C962.08,235.55,951.48,221,936.92,217.93Z"/><path class="cls-13" d="M957.41,255.92c.55,4.35,3.88,7.5,7.43,7.05s6-4.33,5.43-8.68-3.87-7.5-7.43-7S956.86,251.58,957.41,255.92Z"/><path class="cls-17" d="M896.93,213c-8.31,8.49-10.13,20-4.08,25.75s17.7,3.5,26-5,10.14-20,4.08-25.75S905.24,204.55,896.93,213Z"/><path class="cls-17" d="M921.84,216c.41,3.18,4.57,5.27,9.31,4.67S939.4,217,939,213.8s-4.57-5.27-9.31-4.67S921.44,212.8,921.84,216Z"/><path class="cls-17" d="M899.43,243.68a7.38,7.38,0,1,0,6.38-8.33A7.42,7.42,0,0,0,899.43,243.68Z"/><path class="cls-8" d="M965.42,303.2s29-4.71,38.7-.56c6.19,2.63,14.07,55.15,14.07,55.15s.32,53.13,3.94,68.11c12.28,50.77,29.42,95.24,27.5,97.75-12.6,10.35-65.3,20-69.31,15C936.1,484.18,965.42,303.2,965.42,303.2Z"/><path class="cls-13" d="M1013.78,357.05s-29,89.66-41.7,99.06-69.77-78.58-69.77-78.58S877.05,363.19,875.25,363c-7.16-.6,14.94-4.29,14.94-4.29l2.74-22.87s1.08.17,7.68,7.6c8.92,10,16.67,25.62,20.31,28.25l38.24,29,19.46-62.14Z"/><polygon class="cls-6" points="771.78 332.04 783.79 330.87 835.26 458.95 822.03 455.6 771.78 332.04"/><path class="cls-15" d="M886.24,300.83l31,150.79a4.1,4.1,0,0,1-3.89,4.92L835.26,459,783.79,330.88l97.11-33.1A4.1,4.1,0,0,1,886.24,300.83Z"/><path class="cls-5" d="M917.68,366.27l-9.9,21.67s48.65,80.06,63.67,75.62,43.35-91.15,47.79-115-4.78-43.7-17.07-46.77-21.85,17.75-25.6,26.63-17.41,72.38-17.41,72.38Z"/><path class="cls-13" d="M744.72,367.46a34.12,34.12,0,0,1-2.41-5.16c-.58-1.95,11.39-8.75,16.13-5.65S750.52,364.46,744.72,367.46Z"/><path class="cls-13" d="M745.22,375.29s-3-3.15-3.59-5.11,15.35-10,20.09-6.87S751,372.3,745.22,375.29Z"/><path class="cls-13" d="M750.68,380.76s-3-3.16-3.59-5.11,11.39-8.75,16.13-5.66S756.48,377.76,750.68,380.76Z"/><path class="cls-13" d="M895.49,344.76H893a16.62,16.62,0,0,1-3.51-.38c-4.59-1-17.15-3.49-18.13-1-1.19,3.07,18.1,6.66,18.1,6.66s-21.17-2.73-21.17.85,21.51,5.46,21.51,5.46-18.78-.68-19.12,1.37,23,7.85,23,7.85-18.94-4.09-20.82-1.7,29.7,13.91,29.7,13.91Z"/><path class="cls-13" d="M750.68,380.76s10.35-5.85,13.09-4-8.88,10.59-8.88,10.59l1.39,3.2S748.86,384.78,750.68,380.76Z"/></g></g></svg>